<svg width="52" height="52" viewBox="0 0 52 52" fill="none" xmlns="http://www.w3.org/2000/svg">
<circle cx="26" cy="26" r="25.35" stroke="#D3D3D3" stroke-width="0.7"/>
<path d="M17.0167 35.24C16.8183 35.24 16.62 35.17 16.4567 35.0416C15.2783 34.0733 14.625 32.5216 14.625 30.6666V21.3333C14.625 17.3433 16.1767 15.7916 20.1667 15.7916H27.1667C29.5467 15.7916 32.0433 16.235 32.58 19.56C32.6617 20.0383 32.335 20.4816 31.8567 20.5633C31.3783 20.645 30.935 20.3183 30.8533 19.84C30.6083 18.3233 29.9667 17.5416 27.1667 17.5416H20.1667C17.1567 17.5416 16.375 18.3233 16.375 21.3333V30.6666C16.375 31.425 16.5267 32.8366 17.565 33.6883C17.9383 33.9916 17.9967 34.5516 17.6817 34.925C17.5183 35.135 17.2617 35.24 17.0167 35.24Z" fill="#292D32"/>
<path d="M27.1666 36.2084H21.3333C20.855 36.2084 20.4583 35.8117 20.4583 35.3334C20.4583 34.855 20.855 34.4584 21.3333 34.4584H27.1666C30.1766 34.4584 30.9583 33.6767 30.9583 30.6667V24.8334C30.9583 24.355 31.355 23.9584 31.8333 23.9584C32.3116 23.9584 32.7083 24.355 32.7083 24.8334V30.6667C32.7083 34.6567 31.1566 36.2084 27.1666 36.2084Z" fill="#292D32"/>
<path d="M36.2667 33.0466C35.765 33.0466 35.1467 32.8833 34.4117 32.37L31.3317 30.2116C30.935 29.9316 30.8417 29.3833 31.1217 28.9983C31.4017 28.6016 31.9383 28.5083 32.335 28.7883L35.415 30.9466C35.9283 31.3083 36.3017 31.3433 36.4533 31.2616C36.605 31.18 36.7917 30.865 36.7917 30.235V20.1666C36.7917 19.6883 37.1883 19.2916 37.6667 19.2916C38.145 19.2916 38.5417 19.6883 38.5417 20.1666V30.2233C38.5417 31.8916 37.7367 32.5566 37.2583 32.8016C37.0367 32.9183 36.6983 33.0466 36.2667 33.0466Z" fill="#292D32"/>
<path d="M14.3566 38.7633C14.135 38.7633 13.9133 38.6816 13.7383 38.5066C13.4 38.1683 13.4 37.6083 13.7383 37.2699L37.0716 13.9366C37.41 13.5983 37.97 13.5983 38.3083 13.9366C38.6466 14.2749 38.6466 14.8349 38.3083 15.1733L14.975 38.5066C14.8116 38.6816 14.5783 38.7633 14.3566 38.7633Z" fill="#292D32"/>
</svg>
