<svg width="79" height="79" viewBox="0 0 79 79" fill="none" xmlns="http://www.w3.org/2000/svg">
<circle cx="39.5" cy="39.5" r="39.5" fill="#1E1D1D"/>
<path d="M46.8734 40.8825H32.1267C31.371 40.8825 30.7442 40.2558 30.7442 39.5C30.7442 38.7442 31.371 38.1175 32.1267 38.1175H46.8734C47.6292 38.1175 48.2559 38.7442 48.2559 39.5C48.2559 40.2558 47.6292 40.8825 46.8734 40.8825Z" fill="white"/>
<path d="M39.5 48.2558C38.7442 48.2558 38.1175 47.6291 38.1175 46.8733V32.1267C38.1175 31.3709 38.7442 30.7442 39.5 30.7442C40.2558 30.7442 40.8825 31.3709 40.8825 32.1267V46.8733C40.8825 47.6291 40.2558 48.2558 39.5 48.2558Z" fill="white"/>
<path d="M45.0301 59.3158H33.9701C23.9608 59.3158 19.6842 55.0393 19.6842 45.03V33.97C19.6842 23.9607 23.9608 19.6842 33.9701 19.6842H45.0301C55.0394 19.6842 59.3159 23.9607 59.3159 33.97V45.03C59.3159 55.0393 55.0394 59.3158 45.0301 59.3158ZM33.9701 22.4492C25.4723 22.4492 22.4492 25.4722 22.4492 33.97V45.03C22.4492 53.5278 25.4723 56.5508 33.9701 56.5508H45.0301C53.5278 56.5508 56.5509 53.5278 56.5509 45.03V33.97C56.5509 25.4722 53.5278 22.4492 45.0301 22.4492H33.9701Z" fill="white"/>
</svg>
