<svg width="72" height="72" viewBox="0 0 72 72" fill="none" xmlns="http://www.w3.org/2000/svg">
<circle cx="36" cy="36" r="36" fill="#FF6A78"/>
<path d="M27.8854 54.06C23.887 54.06 20.6111 51.1536 20.6111 47.5752V44.148C20.6111 43.4592 21.1823 42.888 21.8711 42.888C22.5599 42.888 23.1311 43.4592 23.1311 44.148C23.1311 46.248 25.1638 47.8272 27.8854 47.8272C30.607 47.8272 32.6399 46.248 32.6399 44.148C32.6399 43.4592 33.2111 42.888 33.8999 42.888C34.5887 42.888 35.1599 43.4592 35.1599 44.148V47.5752C35.1599 51.1536 31.9006 54.06 27.8854 54.06ZM23.5678 49.2216C24.307 50.5992 25.9702 51.54 27.8854 51.54C29.8006 51.54 31.4639 50.5824 32.2031 49.2216C31.0103 49.944 29.5318 50.364 27.8854 50.364C26.239 50.364 24.7606 49.944 23.5678 49.2216Z" fill="white"/>
<path d="M27.8854 45.7439C25.1302 45.7439 22.6607 44.4839 21.4343 42.4847C20.8967 41.6111 20.6111 40.5863 20.6111 39.5447C20.6111 37.7807 21.3839 36.1343 22.7951 34.9079C25.5167 32.5223 30.2039 32.5223 32.9423 34.8911C34.3535 36.1343 35.1431 37.7807 35.1431 39.5447C35.1431 40.5863 34.8575 41.6111 34.3199 42.4847C33.1103 44.4839 30.6406 45.7439 27.8854 45.7439ZM27.8854 35.5799C26.575 35.5799 25.3655 36.0167 24.4583 36.8063C23.6015 37.5455 23.1311 38.5199 23.1311 39.5447C23.1311 40.1327 23.2822 40.6703 23.5846 41.1743C24.3574 42.4511 26.0038 43.2407 27.8854 43.2407C29.767 43.2407 31.4134 42.4511 32.1694 41.1911C32.4718 40.7039 32.6231 40.1495 32.6231 39.5615C32.6231 38.5367 32.1527 37.5623 31.2959 36.8063C30.4055 36.0167 29.1958 35.5799 27.8854 35.5799Z" fill="white"/>
<path d="M27.8854 50.364C23.7358 50.364 20.6111 47.6928 20.6111 44.1648V39.5448C20.6111 35.9664 23.8702 33.06 27.8854 33.06C29.7838 33.06 31.5983 33.7152 32.9591 34.8912C34.3703 36.1344 35.1599 37.7808 35.1599 39.5448V44.1648C35.1599 47.6928 32.035 50.364 27.8854 50.364ZM27.8854 35.58C25.2646 35.58 23.1311 37.3608 23.1311 39.5448V44.1648C23.1311 46.2648 25.1638 47.844 27.8854 47.844C30.607 47.844 32.6399 46.2648 32.6399 44.1648V39.5448C32.6399 38.52 32.1695 37.5455 31.3127 36.7895C30.4055 36.0167 29.1958 35.58 27.8854 35.58Z" fill="white"/>
<path d="M47.8272 40.7039C45.2904 40.7039 43.14 38.8223 42.9384 36.4031C42.804 35.0087 43.308 33.6479 44.316 32.6567C45.156 31.7831 46.3488 31.2959 47.6088 31.2959H51.12C52.7832 31.3463 54.06 32.6566 54.06 34.2694V37.7303C54.06 39.3431 52.7833 40.6535 51.1705 40.7039H47.8272ZM51.0696 33.8159H47.6256C47.0376 33.8159 46.5001 34.0343 46.1137 34.4375C45.6265 34.9079 45.3912 35.5463 45.4584 36.1847C45.5424 37.2935 46.6176 38.1839 47.8272 38.1839H51.12C51.3384 38.1839 51.54 37.9823 51.54 37.7303V34.2694C51.54 34.0174 51.3384 33.8327 51.0696 33.8159Z" fill="white"/>
<path d="M42.7206 51.54H38.5206C37.8318 51.54 37.2606 50.9688 37.2606 50.28C37.2606 49.5912 37.8318 49.02 38.5206 49.02H42.7206C47.055 49.02 49.8606 46.2144 49.8606 41.88V40.704H47.8278C45.291 40.704 43.1406 38.8224 42.939 36.4032C42.8046 35.0088 43.3086 33.648 44.3166 32.6568C45.1566 31.7832 46.3493 31.296 47.6093 31.296H49.8438V30.12C49.8438 26.1888 47.5422 23.484 43.8126 23.0472C43.4094 22.98 43.0566 22.98 42.7038 22.98H27.5838C27.1806 22.98 26.7942 23.0136 26.4078 23.064C22.7118 23.5344 20.4438 26.2224 20.4438 30.12V33.48C20.4438 34.1688 19.8726 34.74 19.1838 34.74C18.495 34.74 17.9238 34.1688 17.9238 33.48V30.12C17.9238 24.9456 21.1158 21.1992 26.0718 20.5776C26.5254 20.5104 27.0462 20.46 27.5838 20.46H42.7038C43.107 20.46 43.6278 20.4768 44.1654 20.5608C49.1214 21.132 52.3638 24.8952 52.3638 30.12V32.556C52.3638 33.2448 51.7926 33.816 51.1038 33.816H47.6093C47.0213 33.816 46.4838 34.0344 46.0974 34.4376C45.6102 34.908 45.375 35.5464 45.4422 36.1848C45.5262 37.2936 46.6014 38.184 47.811 38.184H51.1206C51.8094 38.184 52.3806 38.7552 52.3806 39.444V41.88C52.3806 47.6592 48.4998 51.54 42.7206 51.54Z" fill="white"/>
</svg>
