<svg width="28" height="28" viewBox="0 0 28 28" fill="none" xmlns="http://www.w3.org/2000/svg">
<path d="M23.065 13.125H18.3517C16.0067 13.125 14.875 12.0867 14.875 9.94001V4.64334C14.875 2.49668 16.0183 1.45834 18.3517 1.45834H23.065C25.41 1.45834 26.5417 2.49668 26.5417 4.64334V9.92834C26.5417 12.0867 25.3983 13.125 23.065 13.125ZM18.3517 3.20834C16.7883 3.20834 16.625 3.65168 16.625 4.64334V9.92834C16.625 10.9317 16.7883 11.3633 18.3517 11.3633H23.065C24.6283 11.3633 24.7917 10.92 24.7917 9.92834V4.64334C24.7917 3.64001 24.6283 3.20834 23.065 3.20834H18.3517Z" fill="#FB3846"/>
<path d="M23.065 26.5417H18.3517C16.0067 26.5417 14.875 25.3983 14.875 23.065V18.3517C14.875 16.0067 16.0183 14.875 18.3517 14.875H23.065C25.41 14.875 26.5417 16.0183 26.5417 18.3517V23.065C26.5417 25.3983 25.3983 26.5417 23.065 26.5417ZM18.3517 16.625C16.975 16.625 16.625 16.975 16.625 18.3517V23.065C16.625 24.4417 16.975 24.7917 18.3517 24.7917H23.065C24.4417 24.7917 24.7917 24.4417 24.7917 23.065V18.3517C24.7917 16.975 24.4417 16.625 23.065 16.625H18.3517Z" fill="#FB3846"/>
<path d="M9.64834 13.125H4.935C2.59 13.125 1.45834 12.0867 1.45834 9.94001V4.64334C1.45834 2.49668 2.60167 1.45834 4.935 1.45834H9.64834C11.9933 1.45834 13.125 2.49668 13.125 4.64334V9.92834C13.125 12.0867 11.9817 13.125 9.64834 13.125ZM4.935 3.20834C3.37167 3.20834 3.20834 3.65168 3.20834 4.64334V9.92834C3.20834 10.9317 3.37167 11.3633 4.935 11.3633H9.64834C11.2117 11.3633 11.375 10.92 11.375 9.92834V4.64334C11.375 3.64001 11.2117 3.20834 9.64834 3.20834H4.935Z" fill="#FB3846"/>
<path d="M9.64834 26.5417H4.935C2.59 26.5417 1.45834 25.3983 1.45834 23.065V18.3517C1.45834 16.0067 2.60167 14.875 4.935 14.875H9.64834C11.9933 14.875 13.125 16.0183 13.125 18.3517V23.065C13.125 25.3983 11.9817 26.5417 9.64834 26.5417ZM4.935 16.625C3.55834 16.625 3.20834 16.975 3.20834 18.3517V23.065C3.20834 24.4417 3.55834 24.7917 4.935 24.7917H9.64834C11.025 24.7917 11.375 24.4417 11.375 23.065V18.3517C11.375 16.975 11.025 16.625 9.64834 16.625H4.935Z" fill="#FB3846"/>
</svg>
