<svg width="161" height="133" viewBox="0 0 161 133" fill="none" xmlns="http://www.w3.org/2000/svg">
<g filter="url(#filter0_d_348_2497)">
<circle cx="80.5" cy="75.5" r="29.913" fill="#FF4C5A" stroke="#D3D3D3" stroke-width="0.826"/>
<path d="M80.0049 68C87.5019 67.991 92.5734 70.871 96.1014 73.985C97.5864 75.2945 98.2659 77.2655 97.9127 79.115L97.5594 80.9825C97.2264 82.7285 95.5907 83.903 93.7389 83.723L90.0557 83.3675C88.4492 83.2123 87.2589 82.04 86.7549 80.375C86.0709 78.1138 85.6299 76.4375 85.6299 76.4375C83.8534 75.6761 81.9377 75.293 80.0049 75.3125C77.7234 75.3125 76.0944 75.7963 74.3799 76.4375C74.3799 76.4375 73.9209 78.116 73.2549 80.375C72.8094 81.8848 72.1209 83.2033 70.5482 83.3608L66.8852 83.7298C65.9932 83.8154 65.0989 83.5916 64.3524 83.0958C63.6059 82.6001 63.0527 81.8626 62.7857 81.0073L62.2277 79.1443C61.9511 78.2525 61.926 77.3017 62.1551 76.3966C62.3841 75.4915 62.8585 74.6671 63.5259 74.0143C66.7322 70.8958 72.5192 68.0068 80.0049 68ZM87.8237 75.9358L87.8822 76.1495L88.1027 76.955C88.2962 77.6435 88.5707 78.611 88.9082 79.7225C89.2164 80.7373 89.7857 81.0815 90.2717 81.1288L93.9549 81.4843C94.7334 81.5585 95.2487 81.086 95.3499 80.5618L95.7032 78.6943C95.797 78.1389 95.7458 77.5688 95.5546 77.039C95.3635 76.5092 95.0388 76.0378 94.6119 75.6703C91.4057 72.842 86.8449 70.241 80.0094 70.25C73.0884 70.259 67.8684 72.932 65.0942 75.6275C64.7214 75.9938 64.4576 76.4562 64.3321 76.9635C64.2065 77.4708 64.2242 78.003 64.3832 78.5008L64.9412 80.366C65.1459 81.0545 65.8862 81.5675 66.6602 81.491L70.3232 81.122C70.4109 81.113 70.4402 81.095 70.4447 81.0928C70.4887 81.0624 70.5268 81.0243 70.5572 80.9803C70.7147 80.7823 70.9014 80.4065 71.0972 79.7405C71.4501 78.5408 71.7944 77.3385 72.1299 76.1338L72.1907 75.9155C72.4202 75.0898 73.2212 74.516 73.5924 74.3293C75.4352 73.6408 77.3499 73.0625 80.0049 73.0625C82.2309 73.0433 84.437 73.4838 86.4849 74.3563C86.8247 74.4958 87.5694 74.9953 87.8057 75.866L87.8102 75.8818L87.8237 75.9358Z" fill="white"/>
</g>
<defs>
<filter id="filter0_d_348_2497" x="0.174011" y="0.17395" width="160.652" height="160.652" filterUnits="userSpaceOnUse" color-interpolation-filters="sRGB">
<feFlood flood-opacity="0" result="BackgroundImageFix"/>
<feColorMatrix in="SourceAlpha" type="matrix" values="0 0 0 0 0 0 0 0 0 0 0 0 0 0 0 0 0 0 127 0" result="hardAlpha"/>
<feOffset dy="5"/>
<feGaussianBlur stdDeviation="25"/>
<feComposite in2="hardAlpha" operator="out"/>
<feColorMatrix type="matrix" values="0 0 0 0 0 0 0 0 0 0.262745 0 0 0 0 0.396078 0 0 0 0.07 0"/>
<feBlend mode="normal" in2="BackgroundImageFix" result="effect1_dropShadow_348_2497"/>
<feBlend mode="normal" in="SourceGraphic" in2="effect1_dropShadow_348_2497" result="shape"/>
</filter>
</defs>
</svg>
