<svg width="29" height="28" viewBox="0 0 29 28" fill="none" xmlns="http://www.w3.org/2000/svg">
<path d="M18.28 25.9817H18.1283C12.9483 25.9817 10.4517 23.94 10.02 19.3667C9.97333 18.8883 10.3233 18.4567 10.8133 18.41C11.28 18.3633 11.7233 18.725 11.77 19.2033C12.1083 22.8667 13.835 24.2317 18.14 24.2317H18.2917C23.04 24.2317 24.72 22.5517 24.72 17.8033V10.1967C24.72 5.44834 23.04 3.76834 18.2917 3.76834H18.14C13.8117 3.76834 12.085 5.15667 11.77 8.89001C11.7117 9.36834 11.3033 9.73001 10.8133 9.68334C10.3233 9.64834 9.97333 9.21667 10.0083 8.73834C10.405 4.09501 12.9133 2.01834 18.1283 2.01834H18.28C24.0083 2.01834 26.4583 4.46834 26.4583 10.1967V17.8033C26.4583 23.5317 24.0083 25.9817 18.28 25.9817Z" fill="#1E1D1D"/>
<path d="M18 14.875H4.72334C4.245 14.875 3.84834 14.4783 3.84834 14C3.84834 13.5217 4.245 13.125 4.72334 13.125H18C18.4783 13.125 18.875 13.5217 18.875 14C18.875 14.4783 18.4783 14.875 18 14.875Z" fill="#1E1D1D"/>
<path d="M7.325 18.7833C7.10334 18.7833 6.88167 18.7017 6.70667 18.5267L2.79834 14.6183C2.46 14.28 2.46 13.72 2.79834 13.3817L6.70667 9.47332C7.045 9.13499 7.605 9.13499 7.94334 9.47332C8.28167 9.81166 8.28167 10.3717 7.94334 10.71L4.65334 14L7.94334 17.29C8.28167 17.6283 8.28167 18.1883 7.94334 18.5267C7.78 18.7017 7.54667 18.7833 7.325 18.7833Z" fill="#1E1D1D"/>
</svg>
