<svg width="52" height="52" viewBox="0 0 52 52" fill="none" xmlns="http://www.w3.org/2000/svg">
<circle cx="26" cy="26" r="25.35" stroke="#D3D3D3" stroke-width="0.7"/>
<path d="M30.0833 25.125H21.9167C21.4383 25.125 21.0417 24.7283 21.0417 24.25C21.0417 23.7717 21.4383 23.375 21.9167 23.375H30.0833C30.5617 23.375 30.9583 23.7717 30.9583 24.25C30.9583 24.7283 30.5617 25.125 30.0833 25.125Z" fill="#292D32"/>
<path d="M30.6667 38.0399C30.27 38.0399 29.8733 37.9233 29.535 37.7016L24.565 34.3882H20.1667C16.1533 34.3882 13.4583 31.6932 13.4583 27.6799V20.6799C13.4583 16.6666 16.1533 13.9716 20.1667 13.9716H31.8333C35.8467 13.9716 38.5417 16.6666 38.5417 20.6799V27.6799C38.5417 31.3899 36.2317 33.9799 32.7083 34.3416V35.9982C32.7083 36.7566 32.3 37.4449 31.635 37.7949C31.3317 37.9582 30.9933 38.0399 30.6667 38.0399ZM20.1667 15.7099C17.1567 15.7099 15.2083 17.6582 15.2083 20.6682V27.6682C15.2083 30.6782 17.1567 32.6265 20.1667 32.6265H24.8333C25.0083 32.6265 25.1717 32.6732 25.3234 32.7782L30.515 36.2316C30.6433 36.3132 30.76 36.2783 30.8183 36.2433C30.8767 36.2083 30.97 36.1382 30.97 35.9866V33.5015C30.97 33.0232 31.3667 32.6265 31.845 32.6265C34.855 32.6265 36.8034 30.6782 36.8034 27.6682V20.6682C36.8034 17.6582 34.855 15.7099 31.845 15.7099H20.1667Z" fill="#292D32"/>
</svg>
