<svg width="52" height="52" viewBox="0 0 52 52" fill="none" xmlns="http://www.w3.org/2000/svg">
<circle cx="26" cy="26" r="25.35" stroke="#D3D3D3" stroke-width="0.7"/>
<path d="M26 30.9584C22.9433 30.9584 20.4583 28.4734 20.4583 25.4167V19C20.4583 15.9434 22.9433 13.4584 26 13.4584C29.0567 13.4584 31.5417 15.9434 31.5417 19V25.4167C31.5417 28.4734 29.0567 30.9584 26 30.9584ZM26 15.2084C23.9117 15.2084 22.2083 16.9117 22.2083 19V25.4167C22.2083 27.505 23.9117 29.2084 26 29.2084C28.0883 29.2084 29.7917 27.505 29.7917 25.4167V19C29.7917 16.9117 28.0883 15.2084 26 15.2084Z" fill="#292D32"/>
<path d="M26 35.0416C20.5983 35.0416 16.2 30.6433 16.2 25.2416V23.2583C16.2 22.78 16.5967 22.3833 17.075 22.3833C17.5533 22.3833 17.95 22.78 17.95 23.2583V25.2416C17.95 29.675 21.5667 33.2916 26 33.2916C30.4333 33.2916 34.05 29.675 34.05 25.2416V23.2583C34.05 22.78 34.4467 22.3833 34.925 22.3833C35.4033 22.3833 35.8 22.78 35.8 23.2583V25.2416C35.8 30.6433 31.4017 35.0416 26 35.0416Z" fill="#292D32"/>
<path d="M27.6217 20.3767C27.5283 20.3767 27.4233 20.365 27.3183 20.33C26.4667 20.015 25.5333 20.015 24.6817 20.33C24.2267 20.4934 23.725 20.26 23.5617 19.805C23.3983 19.35 23.6317 18.8484 24.0867 18.685C25.3233 18.2417 26.6883 18.2417 27.925 18.685C28.38 18.8484 28.6133 19.35 28.45 19.805C28.31 20.155 27.9717 20.3767 27.6217 20.3767Z" fill="#292D32"/>
<path d="M26.9333 22.85C26.8517 22.85 26.7817 22.8384 26.7 22.815C26.2333 22.6867 25.755 22.6867 25.2883 22.815C24.8217 22.9434 24.3433 22.6634 24.215 22.1967C24.0867 21.7417 24.3667 21.2634 24.8333 21.135C25.5917 20.925 26.4083 20.925 27.1667 21.135C27.6333 21.2634 27.9133 21.7417 27.785 22.2084C27.68 22.5934 27.3183 22.85 26.9333 22.85Z" fill="#292D32"/>
<path d="M26 38.5416C25.5217 38.5416 25.125 38.145 25.125 37.6666V34.1666C25.125 33.6883 25.5217 33.2916 26 33.2916C26.4783 33.2916 26.875 33.6883 26.875 34.1666V37.6666C26.875 38.145 26.4783 38.5416 26 38.5416Z" fill="#292D32"/>
</svg>
