<svg width="25" height="34" viewBox="0 0 25 34" fill="none" xmlns="http://www.w3.org/2000/svg">
<circle cx="12.5" cy="17.5" r="12.5" fill="#23967F"/>
<path d="M5.6 20.994L5.606 20.034L9.44 16.584C9.76 16.296 9.974 16.024 10.082 15.768C10.194 15.508 10.25 15.242 10.25 14.97C10.25 14.638 10.174 14.338 10.022 14.07C9.87 13.802 9.662 13.59 9.398 13.434C9.138 13.278 8.842 13.2 8.51 13.2C8.166 13.2 7.86 13.282 7.592 13.446C7.324 13.606 7.112 13.82 6.956 14.088C6.804 14.356 6.73 14.648 6.734 14.964H5.642C5.642 14.42 5.768 13.94 6.02 13.524C6.272 13.104 6.614 12.776 7.046 12.54C7.482 12.3 7.976 12.18 8.528 12.18C9.064 12.18 9.544 12.304 9.968 12.552C10.392 12.796 10.726 13.13 10.97 13.554C11.218 13.974 11.342 14.45 11.342 14.982C11.342 15.358 11.294 15.684 11.198 15.96C11.106 16.236 10.962 16.492 10.766 16.728C10.57 16.96 10.324 17.208 10.028 17.472L6.842 20.334L6.704 19.974H11.342V20.994H5.6ZM15.7235 21.18C15.1635 21.18 14.6635 21.054 14.2235 20.802C13.7875 20.546 13.4415 20.2 13.1855 19.764C12.9335 19.324 12.8075 18.824 12.8075 18.264V15.096C12.8075 14.536 12.9335 14.036 13.1855 13.596C13.4415 13.156 13.7875 12.81 14.2235 12.558C14.6635 12.306 15.1635 12.18 15.7235 12.18C16.2835 12.18 16.7835 12.306 17.2235 12.558C17.6635 12.81 18.0095 13.156 18.2615 13.596C18.5135 14.036 18.6395 14.536 18.6395 15.096V18.264C18.6395 18.824 18.5135 19.324 18.2615 19.764C18.0095 20.2 17.6635 20.546 17.2235 20.802C16.7835 21.054 16.2835 21.18 15.7235 21.18ZM15.7235 20.154C16.0635 20.154 16.3715 20.072 16.6475 19.908C16.9235 19.744 17.1435 19.524 17.3075 19.248C17.4715 18.968 17.5535 18.66 17.5535 18.324V15.03C17.5535 14.69 17.4715 14.382 17.3075 14.106C17.1435 13.83 16.9235 13.61 16.6475 13.446C16.3715 13.282 16.0635 13.2 15.7235 13.2C15.3875 13.2 15.0795 13.282 14.7995 13.446C14.5235 13.61 14.3035 13.83 14.1395 14.106C13.9755 14.382 13.8935 14.69 13.8935 15.03V18.324C13.8935 18.66 13.9755 18.968 14.1395 19.248C14.3035 19.524 14.5235 19.744 14.7995 19.908C15.0795 20.072 15.3875 20.154 15.7235 20.154Z" fill="white"/>
</svg>
