<svg width="52" height="52" viewBox="0 0 52 52" fill="none" xmlns="http://www.w3.org/2000/svg">
<circle cx="26" cy="26" r="25.35" stroke="#D3D3D3" stroke-width="0.7"/>
<path d="M26 24.2733C25.5217 24.2733 25.125 23.8767 25.125 23.3983V19.5133C25.125 19.035 25.5217 18.6383 26 18.6383C26.4783 18.6383 26.875 19.035 26.875 19.5133V23.3983C26.875 23.8883 26.4783 24.2733 26 24.2733Z" fill="#292D32"/>
<path d="M26.0233 35.7417C23.0133 35.7417 20.015 35.2633 17.1567 34.3067C16.095 33.9567 15.29 33.1983 14.94 32.2417C14.59 31.285 14.7067 30.1883 15.2783 29.2317L16.76 26.7583C17.0867 26.21 17.3783 25.1833 17.3783 24.5417V22.0917C17.3783 17.32 21.2517 13.4467 26.0233 13.4467C30.795 13.4467 34.6683 17.32 34.6683 22.0917V24.5417C34.6683 25.1717 34.96 26.21 35.2867 26.7583L36.7683 29.2317C37.3167 30.1417 37.41 31.2267 37.0483 32.2183C36.6867 33.21 35.8933 33.9683 34.89 34.3067C32.0317 35.275 29.0333 35.7417 26.0233 35.7417ZM26.0233 15.2083C22.22 15.2083 19.1283 18.3 19.1283 22.1033V24.5533C19.1283 25.4983 18.755 26.8633 18.265 27.6683L16.7833 30.1533C16.48 30.655 16.41 31.1917 16.585 31.6583C16.76 32.125 17.1567 32.475 17.7167 32.6617C23.0833 34.4467 28.9867 34.4467 34.3533 32.6617C34.855 32.4983 35.24 32.125 35.415 31.635C35.6017 31.145 35.5433 30.6083 35.275 30.1533L33.7933 27.68C33.3033 26.875 32.93 25.51 32.93 24.565V22.115C32.9183 18.3 29.8267 15.2083 26.0233 15.2083Z" fill="#292D32"/>
<path d="M26 38.7167C24.7517 38.7167 23.5267 38.2033 22.64 37.3167C21.7533 36.43 21.24 35.205 21.24 33.9567H22.99C22.99 34.75 23.3167 35.52 23.8767 36.08C24.4367 36.64 25.2067 36.9667 26 36.9667C27.6567 36.9667 29.01 35.6133 29.01 33.9567H30.76C30.76 36.5817 28.625 38.7167 26 38.7167Z" fill="#292D32"/>
</svg>
