<svg width="82" height="82" viewBox="0 0 82 82" fill="none" xmlns="http://www.w3.org/2000/svg">
<circle cx="41" cy="41" r="41" fill="#37AA93"/>
<path d="M46.74 61.5683H35.26C24.8706 61.5683 20.4316 57.1294 20.4316 46.74V35.26C20.4316 24.8706 24.8706 20.4317 35.26 20.4317H46.74C57.1294 20.4317 61.5683 24.8706 61.5683 35.26V46.74C61.5683 47.2183 61.5683 47.6967 61.53 48.1559C61.4726 48.7681 61.0517 49.2656 60.4586 49.4187C59.8654 49.5718 59.2532 49.3422 58.9088 48.8256C58.8514 48.7682 58.7366 48.6342 58.66 48.5385C57.2824 47.0653 55.4074 46.2617 53.4366 46.2617C51.485 46.2617 49.6482 47.027 48.2898 48.4237C46.9887 49.7631 46.2616 51.5425 46.2616 53.4367C46.2616 54.7186 46.6252 56.0005 47.2948 57.1294C47.6392 57.7034 48.0602 58.2391 48.5385 58.66C48.615 58.7174 48.6724 58.7749 48.7107 58.8131L48.8638 58.9471C49.3038 59.3106 49.5143 59.942 49.3421 60.4969C49.1699 61.0517 48.7107 61.4726 48.1367 61.53C47.7158 61.5683 47.2183 61.5683 46.74 61.5683ZM35.26 23.3017C26.4395 23.3017 23.3016 26.4395 23.3016 35.26V46.74C23.3016 55.5605 26.4395 58.6983 35.26 58.6983H44.884C44.8649 58.6601 44.8458 58.641 44.8266 58.6027C43.8891 57.0338 43.3725 55.2352 43.3725 53.4367C43.3725 50.7963 44.3866 48.309 46.2042 46.4339C48.0793 44.5015 50.7197 43.3917 53.4175 43.3917C55.2926 43.3917 57.1294 43.9083 58.6792 44.8841V35.26C58.6792 26.4395 55.5413 23.3017 46.7208 23.3017H35.26Z" fill="white"/>
<path d="M59.1384 33.0788H22.8616C22.0771 33.0788 21.4266 32.4282 21.4266 31.6438C21.4266 30.8593 22.0771 30.2088 22.8616 30.2088H59.1384C59.9229 30.2088 60.5734 30.8593 60.5734 31.6438C60.5734 32.4282 59.942 33.0788 59.1384 33.0788Z" fill="white"/>
<path d="M34.3416 32.8109C33.5571 32.8109 32.9066 32.1604 32.9066 31.3759V22.0771C32.9066 21.2927 33.5571 20.6421 34.3416 20.6421C35.1261 20.6421 35.7766 21.2927 35.7766 22.0771V31.3759C35.7766 32.1604 35.1261 32.8109 34.3416 32.8109Z" fill="white"/>
<path d="M47.6586 31.95C46.8741 31.95 46.2236 31.2995 46.2236 30.515V22.0771C46.2236 21.2927 46.8741 20.6421 47.6586 20.6421C48.4431 20.6421 49.0936 21.2927 49.0936 22.0771V30.515C49.0936 31.3186 48.4622 31.95 47.6586 31.95Z" fill="white"/>
<path d="M53.4363 63.4817C51.1786 63.4817 48.9783 62.7163 47.2563 61.3004C47.1989 61.2622 47.1415 61.2239 47.1032 61.1856C46.9693 61.0708 46.8736 60.9943 46.7971 60.9177C46.7588 60.8986 46.7397 60.8795 46.7205 60.8413C46.0126 60.2099 45.3621 59.4446 44.8646 58.6027C43.9271 57.0338 43.4105 55.2352 43.4105 53.4367C43.4105 50.7963 44.4245 48.309 46.2422 46.4339C48.1173 44.5014 50.7577 43.3917 53.4555 43.3917C56.2872 43.3917 58.985 44.578 60.8601 46.6635C60.8792 46.6826 60.9175 46.7209 60.9366 46.7591C61.0705 46.8931 61.2045 47.0653 61.3001 47.2183C62.6777 48.8829 63.5005 51.1215 63.5005 53.4367C63.5005 54.2785 63.4048 55.063 63.2135 55.8092C62.9839 56.7658 62.6012 57.7034 62.0655 58.6027C60.2287 61.6258 56.9377 63.4817 53.4363 63.4817ZM48.8252 58.8896C48.8826 58.9279 48.9209 58.9471 48.9591 58.9854C50.2219 60.0377 51.7526 60.5925 53.4363 60.5925C55.9428 60.5925 58.2771 59.2532 59.5782 57.1102C59.9608 56.4788 60.2287 55.79 60.4009 55.0821C60.5348 54.5464 60.6113 54.0106 60.6113 53.4175C60.6113 51.772 60.0373 50.184 58.985 48.9212L58.8128 48.6916C58.7554 48.6342 58.698 48.5768 58.6597 48.5002C57.2821 47.0461 55.4071 46.2425 53.4363 46.2425C51.4847 46.2425 49.6479 47.0079 48.2895 48.4046C46.9884 49.7439 46.2613 51.5233 46.2613 53.4175C46.2613 54.6994 46.6249 55.9814 47.2945 57.1102C47.6389 57.6842 48.0599 58.2199 48.5382 58.6409C48.6147 58.6983 48.6721 58.7557 48.7104 58.794L48.8252 58.8896Z" fill="white"/>
<path d="M56.6507 54.8334H50.2219C49.4374 54.8334 48.7869 54.1828 48.7869 53.3984C48.7869 52.6139 49.4374 51.9634 50.2219 51.9634H56.6507C57.4351 51.9634 58.0857 52.6139 58.0857 53.3984C58.0857 54.1828 57.4543 54.8334 56.6507 54.8334Z" fill="white"/>
<path d="M53.4366 58.1245C52.6522 58.1245 52.0016 57.474 52.0016 56.6895V50.2607C52.0016 49.4762 52.6522 48.8257 53.4366 48.8257C54.2211 48.8257 54.8716 49.4762 54.8716 50.2607V56.6895C54.8716 57.4931 54.2211 58.1245 53.4366 58.1245Z" fill="white"/>
</svg>
