<svg width="42" height="42" viewBox="0 0 42 42" fill="none" xmlns="http://www.w3.org/2000/svg">
<circle cx="21" cy="21" r="20.35" stroke="#979797" stroke-width="0.7"/>
<path d="M14.8494 30.1001C13.804 30.1001 13.1414 29.7454 12.7214 29.3254C11.9 28.5041 11.3214 26.7587 13.1694 23.0534L13.9814 21.4387C14.084 21.2241 14.084 20.7761 13.9814 20.5614L13.1694 18.9467C11.312 15.2414 11.9 13.4867 12.7214 12.6747C13.5334 11.8534 15.288 11.2654 18.984 13.1227L26.9734 17.1174C28.9614 18.1067 30.0534 19.4881 30.0534 21.0001C30.0534 22.5121 28.9614 23.8934 26.9827 24.8827L18.9934 28.8774C17.1827 29.7827 15.8387 30.1001 14.8494 30.1001ZM14.8494 13.3001C14.3454 13.3001 13.9534 13.4214 13.7107 13.6641C13.0294 14.3361 13.3 16.0814 14.42 18.3121L15.232 19.9361C15.5307 20.5427 15.5307 21.4574 15.232 22.0641L14.42 23.6787C13.3 25.9187 13.0294 27.6547 13.7107 28.3267C14.3827 29.0081 16.128 28.7374 18.368 27.6174L26.3574 23.6227C27.8227 22.8947 28.6534 21.9334 28.6534 20.9907C28.6534 20.0481 27.8134 19.0867 26.348 18.3587L18.3587 14.3734C16.94 13.6641 15.7174 13.3001 14.8494 13.3001Z" fill="#37AA93"/>
<path d="M19.9174 21.7H14.8774C14.4947 21.7 14.1774 21.3827 14.1774 21C14.1774 20.6174 14.4947 20.3 14.8774 20.3H19.9174C20.3 20.3 20.6174 20.6174 20.6174 21C20.6174 21.3827 20.3 21.7 19.9174 21.7Z" fill="#37AA93"/>
</svg>
