<svg width="52" height="52" viewBox="0 0 52 52" fill="none" xmlns="http://www.w3.org/2000/svg">
<circle cx="26" cy="26" r="25.35" stroke="#D3D3D3" stroke-width="0.7"/>
<path d="M26 30.375C23.585 30.375 21.625 28.415 21.625 26C21.625 23.585 23.585 21.625 26 21.625C28.415 21.625 30.375 23.585 30.375 26C30.375 28.415 28.415 30.375 26 30.375ZM26 23.375C24.5533 23.375 23.375 24.5533 23.375 26C23.375 27.4467 24.5533 28.625 26 28.625C27.4467 28.625 28.625 27.4467 28.625 26C28.625 24.5533 27.4467 23.375 26 23.375Z" fill="#292D32"/>
<path d="M29.745 37.8883C29.5 37.8883 29.255 37.8533 29.01 37.795C28.2867 37.5967 27.68 37.1417 27.295 36.5L27.155 36.2667C26.4667 35.0767 25.5217 35.0767 24.8333 36.2667L24.705 36.4883C24.32 37.1417 23.7133 37.6083 22.99 37.795C22.255 37.9933 21.4967 37.8883 20.855 37.5033L18.8483 36.3483C18.1367 35.94 17.6233 35.275 17.4017 34.47C17.1917 33.665 17.2967 32.8367 17.705 32.125C18.0433 31.53 18.1367 30.9933 17.9383 30.655C17.74 30.3167 17.2383 30.1183 16.55 30.1183C14.8467 30.1183 13.4583 28.73 13.4583 27.0267V24.9733C13.4583 23.27 14.8467 21.8817 16.55 21.8817C17.2383 21.8817 17.74 21.6833 17.9383 21.345C18.1367 21.0067 18.055 20.47 17.705 19.875C17.2967 19.1633 17.1917 18.3233 17.4017 17.53C17.6117 16.725 18.125 16.06 18.8483 15.6517L20.8667 14.4967C22.185 13.715 23.9233 14.17 24.7167 15.5117L24.8567 15.745C25.545 16.935 26.49 16.935 27.1783 15.745L27.3067 15.5233C28.1 14.17 29.8383 13.715 31.1683 14.5083L33.175 15.6633C33.8867 16.0717 34.4 16.7367 34.6217 17.5417C34.8317 18.3467 34.7267 19.175 34.3183 19.8867C33.98 20.4817 33.8867 21.0183 34.085 21.3567C34.2833 21.695 34.785 21.8933 35.4733 21.8933C37.1767 21.8933 38.565 23.2817 38.565 24.985V27.0383C38.565 28.7417 37.1767 30.13 35.4733 30.13C34.785 30.13 34.2833 30.3283 34.085 30.6667C33.8867 31.005 33.9683 31.5417 34.3183 32.1367C34.7267 32.8483 34.8433 33.6883 34.6217 34.4817C34.4117 35.2867 33.8983 35.9517 33.175 36.36L31.1567 37.515C30.7133 37.76 30.235 37.8883 29.745 37.8883ZM26 33.5717C27.0383 33.5717 28.0067 34.225 28.6717 35.38L28.8 35.6017C28.94 35.8467 29.1733 36.0217 29.4533 36.0917C29.7333 36.1617 30.0133 36.1267 30.2467 35.9867L32.265 34.82C32.5683 34.645 32.8017 34.3533 32.895 34.0033C32.9883 33.6533 32.9417 33.2917 32.7667 32.9883C32.1017 31.845 32.02 30.6667 32.5333 29.7683C33.0467 28.87 34.1083 28.3567 35.4383 28.3567C36.185 28.3567 36.78 27.7617 36.78 27.015V24.9617C36.78 24.2267 36.185 23.62 35.4383 23.62C34.1083 23.62 33.0467 23.1067 32.5333 22.2083C32.02 21.31 32.1017 20.1317 32.7667 18.9883C32.9417 18.685 32.9883 18.3233 32.895 17.9733C32.8017 17.6233 32.58 17.3433 32.2767 17.1567L30.2583 16.0017C29.7567 15.6983 29.0917 15.8733 28.7883 16.3867L28.66 16.6083C27.995 17.7633 27.0267 18.4167 25.9883 18.4167C24.95 18.4167 23.9817 17.7633 23.3167 16.6083L23.1883 16.375C22.8967 15.885 22.2433 15.71 21.7417 16.0017L19.7233 17.1683C19.42 17.3433 19.1867 17.635 19.0933 17.985C19 18.335 19.0467 18.6967 19.2217 19C19.8867 20.1433 19.9683 21.3217 19.455 22.22C18.9417 23.1183 17.88 23.6317 16.55 23.6317C15.8033 23.6317 15.2083 24.2267 15.2083 24.9733V27.0267C15.2083 27.7617 15.8033 28.3683 16.55 28.3683C17.88 28.3683 18.9417 28.8817 19.455 29.78C19.9683 30.6783 19.8867 31.8567 19.2217 33C19.0467 33.3033 19 33.665 19.0933 34.015C19.1867 34.365 19.4083 34.645 19.7117 34.8317L21.73 35.9867C21.975 36.1383 22.2667 36.1733 22.535 36.1033C22.815 36.0333 23.0483 35.8467 23.2 35.6017L23.3283 35.38C23.9933 34.2367 24.9617 33.5717 26 33.5717Z" fill="#292D32"/>
</svg>
