<svg width="72" height="72" viewBox="0 0 72 72" fill="none" xmlns="http://www.w3.org/2000/svg">
<circle cx="36" cy="36" r="36" fill="#FFB573"/>
<path d="M41.0401 54.06H30.9601C21.8377 54.06 17.9401 50.1624 17.9401 41.04V30.96C17.9401 21.8376 21.8377 17.94 30.9601 17.94H41.0401C50.1625 17.94 54.0601 21.8376 54.0601 30.96V41.04C54.0601 50.1624 50.1625 54.06 41.0401 54.06ZM30.9601 20.46C23.2153 20.46 20.4601 23.2152 20.4601 30.96V41.04C20.4601 48.7848 23.2153 51.54 30.9601 51.54H41.0401C48.7849 51.54 51.5401 48.7848 51.5401 41.04V30.96C51.5401 23.2152 48.7849 20.46 41.0401 20.46H30.9601Z" fill="white"/>
<path d="M51.9265 29.0448H20.0737C19.3849 29.0448 18.8137 28.4736 18.8137 27.7848C18.8137 27.096 19.3681 26.5248 20.0737 26.5248H51.9265C52.6153 26.5248 53.1865 27.096 53.1865 27.7848C53.1865 28.4736 52.6321 29.0448 51.9265 29.0448Z" fill="white"/>
<path d="M30.1537 28.8096C29.4649 28.8096 28.8937 28.2384 28.8937 27.5496V19.3848C28.8937 18.696 29.4649 18.1248 30.1537 18.1248C30.8425 18.1248 31.4137 18.696 31.4137 19.3848V27.5496C31.4137 28.2384 30.8425 28.8096 30.1537 28.8096Z" fill="white"/>
<path d="M41.8465 28.0536C41.1577 28.0536 40.5865 27.4824 40.5865 26.7936V19.3848C40.5865 18.696 41.1577 18.1248 41.8465 18.1248C42.5353 18.1248 43.1065 18.696 43.1065 19.3848V26.7936C43.1065 27.4992 42.5521 28.0536 41.8465 28.0536Z" fill="white"/>
<path d="M34.4713 46.2816C33.8665 46.2816 33.2953 46.1304 32.7745 45.8448C31.6321 45.1728 30.9601 43.8288 30.9601 42.132V38.1C30.9601 36.4032 31.6321 35.0424 32.7913 34.3704C33.9505 33.6984 35.4625 33.7992 36.9241 34.656L40.4185 36.672C41.8801 37.512 42.7369 38.772 42.7369 40.116C42.7369 41.46 41.8801 42.72 40.4017 43.56L36.9073 45.576C36.1009 46.0464 35.2609 46.2816 34.4713 46.2816ZM34.4881 36.4536C34.3201 36.4536 34.1689 36.4872 34.0513 36.5544C33.6985 36.756 33.4801 37.3272 33.4801 38.1V42.132C33.4801 42.888 33.6985 43.4592 34.0513 43.6776C34.4041 43.8792 35.0089 43.7784 35.6641 43.392L39.1585 41.376C39.8137 40.9896 40.2169 40.5192 40.2169 40.116C40.2169 39.7128 39.8305 39.2424 39.1585 38.856L35.6641 36.84C35.2273 36.588 34.8073 36.4536 34.4881 36.4536Z" fill="white"/>
</svg>
