<svg width="28" height="28" viewBox="0 0 28 28" fill="none" xmlns="http://www.w3.org/2000/svg">
<path d="M15.0267 24.3367H7.945C3.80334 24.3367 2.33334 21.4317 2.33334 18.725V9.275C2.33334 5.23833 3.90834 3.66333 7.945 3.66333H15.0267C19.0633 3.66333 20.6383 5.23833 20.6383 9.275V18.725C20.6383 22.7617 19.0633 24.3367 15.0267 24.3367ZM7.945 5.43666C4.9 5.43666 4.10667 6.23 4.10667 9.275V18.725C4.10667 20.16 4.60834 22.5633 7.945 22.5633H15.0267C18.0717 22.5633 18.865 21.77 18.865 18.725V9.275C18.865 6.23 18.0717 5.43666 15.0267 5.43666H7.945Z" fill="#474747"/>
<path d="M24.2433 21.1284C23.7416 21.1284 23.0999 20.965 22.3649 20.4517L19.2499 18.27C19.0166 18.1067 18.8766 17.8383 18.8766 17.5467V10.4533C18.8766 10.1617 19.0166 9.89335 19.2499 9.73001L22.3649 7.54835C23.7533 6.58001 24.7683 6.86001 25.2466 7.10501C25.7249 7.36168 26.5416 8.02668 26.5416 9.71835V18.27C26.5416 19.9617 25.7249 20.6383 25.2466 20.8833C25.0249 21.0117 24.6749 21.1284 24.2433 21.1284ZM20.6383 17.08L23.3799 18.9934C23.9049 19.355 24.2783 19.39 24.4299 19.3083C24.5933 19.2267 24.7683 18.9 24.7683 18.27V9.73001C24.7683 9.08835 24.5816 8.77335 24.4299 8.69168C24.2783 8.61001 23.9049 8.64501 23.3799 9.00668L20.6383 10.92V17.08Z" fill="#474747"/>
<path d="M13.4167 13.7083C11.97 13.7083 10.7917 12.53 10.7917 11.0833C10.7917 9.63668 11.97 8.45834 13.4167 8.45834C14.8633 8.45834 16.0417 9.63668 16.0417 11.0833C16.0417 12.53 14.8633 13.7083 13.4167 13.7083ZM13.4167 10.2083C12.9383 10.2083 12.5417 10.605 12.5417 11.0833C12.5417 11.5617 12.9383 11.9583 13.4167 11.9583C13.895 11.9583 14.2917 11.5617 14.2917 11.0833C14.2917 10.605 13.895 10.2083 13.4167 10.2083Z" fill="#474747"/>
</svg>
