<svg width="29" height="28" viewBox="0 0 29 28" fill="none" xmlns="http://www.w3.org/2000/svg">
<path d="M8.86476 26.5417C6.0881 26.5417 3.81315 24.5234 3.81315 22.0384V19.6583C3.81315 19.18 4.20982 18.7833 4.68815 18.7833C5.16648 18.7833 5.56315 19.18 5.56315 19.6583C5.56315 21.1166 6.97476 22.2133 8.86476 22.2133C10.7548 22.2133 12.1665 21.1166 12.1665 19.6583C12.1665 19.18 12.5631 18.7833 13.0415 18.7833C13.5198 18.7833 13.9165 19.18 13.9165 19.6583V22.0384C13.9165 24.5234 11.6531 26.5417 8.86476 26.5417ZM5.86642 23.1817C6.37976 24.1383 7.53476 24.7917 8.86476 24.7917C10.1948 24.7917 11.3498 24.1267 11.8631 23.1817C11.0348 23.6833 10.0081 23.975 8.86476 23.975C7.72143 23.975 6.69476 23.6833 5.86642 23.1817Z" fill="#474747"/>
<path d="M8.86476 20.7666C6.95143 20.7666 5.23647 19.8916 4.3848 18.5032C4.01147 17.8966 3.81315 17.1849 3.81315 16.4616C3.81315 15.2366 4.3498 14.0932 5.3298 13.2416C7.2198 11.5849 10.4748 11.585 12.3764 13.23C13.3564 14.0933 13.9048 15.2366 13.9048 16.4616C13.9048 17.1849 13.7065 17.8966 13.3331 18.5032C12.4931 19.8916 10.7781 20.7666 8.86476 20.7666ZM8.86476 13.7083C7.95476 13.7083 7.11479 14.0116 6.48479 14.5599C5.88979 15.0732 5.56315 15.7499 5.56315 16.4616C5.56315 16.8699 5.6681 17.2433 5.8781 17.5933C6.41477 18.4799 7.5581 19.0283 8.86476 19.0283C10.1714 19.0283 11.3147 18.48 11.8397 17.605C12.0497 17.2666 12.1548 16.8816 12.1548 16.4733C12.1548 15.7616 11.8281 15.0849 11.2331 14.5599C10.6148 14.0116 9.77476 13.7083 8.86476 13.7083Z" fill="#474747"/>
<path d="M8.86476 23.975C5.9831 23.975 3.81315 22.12 3.81315 19.67V16.4616C3.81315 13.9766 6.07643 11.9583 8.86476 11.9583C10.1831 11.9583 11.4431 12.4134 12.3881 13.23C13.3681 14.0934 13.9165 15.2366 13.9165 16.4616V19.67C13.9165 22.12 11.7464 23.975 8.86476 23.975ZM8.86476 13.7083C7.04476 13.7083 5.56315 14.945 5.56315 16.4616V19.67C5.56315 21.1283 6.97476 22.225 8.86476 22.225C10.7548 22.225 12.1665 21.1283 12.1665 19.67V16.4616C12.1665 15.75 11.8398 15.0733 11.2448 14.5483C10.6148 14.0116 9.77476 13.7083 8.86476 13.7083Z" fill="#474747"/>
<path d="M22.7132 17.2666C20.9515 17.2666 19.4582 15.9599 19.3182 14.2799C19.2249 13.3116 19.5749 12.3666 20.2749 11.6783C20.8582 11.0716 21.6865 10.7333 22.5615 10.7333H24.9999C26.1549 10.7683 27.0416 11.6782 27.0416 12.7982V15.2016C27.0416 16.3216 26.1549 17.2316 25.0349 17.2666H22.7132ZM24.9649 12.4833H22.5732C22.1649 12.4833 21.7916 12.6349 21.5232 12.9149C21.1849 13.2416 21.0216 13.6849 21.0682 14.1282C21.1266 14.8982 21.8732 15.5166 22.7132 15.5166H24.9999C25.1516 15.5166 25.2916 15.3766 25.2916 15.2016V12.7982C25.2916 12.6232 25.1515 12.4949 24.9649 12.4833Z" fill="#474747"/>
<path d="M19.1669 24.7917H16.2503C15.7719 24.7917 15.3753 24.395 15.3753 23.9167C15.3753 23.4383 15.7719 23.0417 16.2503 23.0417H19.1669C22.1769 23.0417 24.1253 21.0933 24.1253 18.0833V17.2666H22.7136C20.9519 17.2666 19.4586 15.96 19.3186 14.28C19.2253 13.3117 19.5753 12.3667 20.2753 11.6783C20.8586 11.0717 21.6869 10.7333 22.5619 10.7333H24.1136V9.91666C24.1136 7.18666 22.5153 5.3083 19.9253 5.00497C19.6453 4.9583 19.4003 4.95833 19.1553 4.95833H8.65527C8.37527 4.95833 8.10692 4.98165 7.83859 5.01665C5.27192 5.34331 3.69694 7.20999 3.69694 9.91666V12.25C3.69694 12.7283 3.30027 13.125 2.82194 13.125C2.3436 13.125 1.94694 12.7283 1.94694 12.25V9.91666C1.94694 6.32333 4.16365 3.72167 7.60531 3.29C7.92031 3.24334 8.28194 3.20833 8.65527 3.20833H19.1553C19.4353 3.20833 19.7969 3.21999 20.1703 3.27833C23.6119 3.67499 25.8636 6.28833 25.8636 9.91666V11.6083C25.8636 12.0867 25.4669 12.4833 24.9886 12.4833H22.5619C22.1536 12.4833 21.7803 12.635 21.512 12.915C21.1736 13.2417 21.0103 13.685 21.0569 14.1283C21.1153 14.8983 21.862 15.5166 22.702 15.5166H25.0003C25.4786 15.5166 25.8753 15.9133 25.8753 16.3916V18.0833C25.8753 22.0967 23.1803 24.7917 19.1669 24.7917Z" fill="#474747"/>
</svg>
